<svg width="137" height="35" viewBox="0 0 137 35" fill="none" xmlns="http://www.w3.org/2000/svg">
<path d="M42.1377 20.5097C42.5404 20.5097 42.886 20.5512 43.1744 20.6333C43.4628 20.7154 43.699 20.8423 43.883 21.0139C44.0669 21.1856 44.202 21.4046 44.289 21.6708C44.3761 21.937 44.42 22.2521 44.42 22.6146V23.6297C44.42 23.9929 44.3761 24.3081 44.289 24.5735C44.202 24.8397 44.0661 25.0586 43.883 25.2303C43.699 25.402 43.4628 25.5289 43.1744 25.611C42.886 25.6931 42.5404 25.7337 42.1377 25.7337H38.647C38.4979 25.7337 38.4233 25.6591 38.4233 25.5098V20.7328C38.4233 20.5835 38.4979 20.5089 38.647 20.5089L42.1377 20.5097ZM39.5644 24.6C39.5644 24.6647 39.5968 24.6971 39.6614 24.6971H42.1078C42.3266 24.6971 42.5106 24.6771 42.6598 24.6373C42.8089 24.5975 42.9291 24.5328 43.0219 24.4433C43.1139 24.3537 43.1794 24.2343 43.2192 24.085C43.2589 23.9357 43.2788 23.7516 43.2788 23.5327V22.7116C43.2788 22.4927 43.2589 22.3085 43.2192 22.1593C43.1794 22.01 43.1131 21.8905 43.0219 21.801C42.9299 21.7114 42.8098 21.6467 42.6598 21.6069C42.5106 21.5671 42.3266 21.5472 42.1078 21.5472H39.6614C39.5968 21.5472 39.5644 21.582 39.5644 21.6517V24.6Z" fill="white"/>
<path d="M49.1636 20.5097C49.3526 20.5097 49.5117 20.5487 49.641 20.6258C49.7703 20.7029 49.8971 20.853 50.0214 21.0778L52.4902 25.5637C52.515 25.6135 52.5208 25.6549 52.5084 25.6865C52.496 25.7188 52.4603 25.7346 52.4007 25.7346H51.4534C51.3689 25.7346 51.3117 25.7022 51.2819 25.6375L50.7523 24.6747H47.2468L46.7321 25.6375C46.6973 25.7022 46.6402 25.7346 46.5606 25.7346H45.591C45.5263 25.7346 45.4874 25.7188 45.475 25.6865C45.4625 25.6541 45.4683 25.6135 45.494 25.5637L47.9404 21.0778C48.0647 20.8539 48.1866 20.7038 48.3059 20.6258C48.4252 20.5487 48.5645 20.5097 48.7236 20.5097H49.1636ZM47.7167 23.8088H50.2824L49.0965 21.6218C49.0766 21.587 49.0493 21.5696 49.0145 21.5696H48.9697C48.9349 21.5696 48.9076 21.587 48.8877 21.6218L47.7167 23.8088Z" fill="white"/>
<path d="M57.9573 20.5097C58.3352 20.5097 58.6567 20.5462 58.9228 20.6175C59.1888 20.6897 59.4051 20.8041 59.5717 20.9609C59.7382 21.1176 59.8584 21.3208 59.9338 21.5688C60.0084 21.8176 60.0457 22.1211 60.0457 22.4794V23.7632C60.0457 24.1215 60.0084 24.4267 59.9338 24.6771C59.8592 24.9284 59.7382 25.1325 59.5717 25.2892C59.4051 25.4459 59.1888 25.5596 58.9228 25.6292C58.6567 25.6989 58.3344 25.7337 57.9573 25.7337H55.6526C55.2747 25.7337 54.954 25.6989 54.6904 25.6292C54.4269 25.5596 54.2114 25.4459 54.0457 25.2892C53.8791 25.1325 53.7573 24.9284 53.6802 24.6771C53.6031 24.4259 53.5642 24.1215 53.5642 23.7632V22.4794C53.5642 22.1211 53.6023 21.8176 53.6802 21.5688C53.7573 21.32 53.8791 21.1168 54.0457 20.9609C54.2123 20.8041 54.4269 20.6897 54.6904 20.6175C54.954 20.5454 55.2747 20.5097 55.6526 20.5097H57.9573ZM54.7054 23.6819C54.7054 23.876 54.7211 24.0394 54.7534 24.1712C54.7858 24.3031 54.8396 24.4076 54.9134 24.4847C54.988 24.5619 55.0891 24.6166 55.2159 24.6489C55.3427 24.6813 55.5026 24.6971 55.6965 24.6971H57.9117C58.1056 24.6971 58.2656 24.6813 58.3924 24.6489C58.5192 24.6166 58.6203 24.5619 58.694 24.4847C58.7686 24.4076 58.8217 24.3031 58.8548 24.1712C58.8871 24.0394 58.9029 23.8768 58.9029 23.6819V22.5623C58.9029 22.3682 58.8863 22.2057 58.8548 22.073C58.8225 21.9411 58.7686 21.8366 58.694 21.7595C58.6195 21.6824 58.5192 21.6276 58.3924 21.5953C58.2656 21.563 58.1056 21.5472 57.9117 21.5472H55.6965C55.5026 21.5472 55.3418 21.5638 55.2159 21.5953C55.0891 21.6276 54.988 21.6824 54.9134 21.7595C54.8388 21.8366 54.7858 21.9411 54.7534 22.073C54.7211 22.2049 54.7054 22.3674 54.7054 22.5623V23.6819Z" fill="white"/>
<path d="M44.5111 8.92209C44.8327 8.92209 45.112 8.98678 45.3341 9.12279C45.5562 9.2588 45.7774 9.51673 45.9921 9.9032L50.241 17.6203C50.2841 17.7065 50.2907 17.7778 50.27 17.8351C50.2485 17.8923 50.1838 17.9213 50.0844 17.9213H48.4534C48.31 17.9213 48.2106 17.8641 48.16 17.7563L47.2518 16.1026H41.2211L40.3343 17.7563C40.2772 17.8707 40.1769 17.9213 40.041 17.9213H38.3744C38.26 17.9213 38.1954 17.8923 38.1738 17.8351C38.1523 17.7778 38.1597 17.7065 38.2028 17.6203L42.4161 9.9032C42.6308 9.51673 42.8379 9.2588 43.0459 9.12279C43.2531 8.98678 43.4893 8.92209 43.7611 8.92209H44.5111ZM46.4355 14.599L44.3968 10.8337C44.3611 10.7765 44.318 10.7408 44.2534 10.7408H44.1747C44.1175 10.7408 44.0678 10.7699 44.0313 10.8337L42.0142 14.599H46.4355Z" fill="white"/>
<path d="M59.5766 8.92209C60.5637 8.92209 61.2648 9.14435 61.694 9.58805C62.1233 10.0318 62.338 10.6903 62.338 11.5635V12.2934C62.338 13.0307 62.188 13.6104 61.8871 14.04C61.5863 14.4696 61.0998 14.7416 60.4203 14.8635L62.6164 17.5838C62.6595 17.6269 62.6736 17.6907 62.6521 17.777C62.638 17.8633 62.5659 17.9055 62.4449 17.9055H60.7924C60.678 17.9055 60.6068 17.8914 60.5637 17.8699C60.5206 17.8409 60.4775 17.7986 60.4352 17.7413L58.404 15.0708H54.2554V17.6269C54.2554 17.8127 54.1625 17.9064 53.9761 17.9064H52.588C52.3874 17.9064 52.2946 17.8135 52.2946 17.6269V9.30856C52.2946 9.05064 52.423 8.92209 52.6808 8.92209H59.5766ZM54.262 13.5109H59.1764C59.6131 13.5109 59.9206 13.418 60.0996 13.2314C60.2786 13.0456 60.3714 12.7586 60.3714 12.3722V11.8356C60.3714 11.4491 60.2786 11.163 60.0996 10.9764C59.9206 10.7906 59.6131 10.6969 59.1764 10.6969H54.4261C54.3117 10.6969 54.2612 10.7466 54.2612 10.8545V13.51L54.262 13.5109Z" fill="white"/>
<path d="M73.075 8.92209C73.9551 8.92209 74.5841 9.10123 74.9562 9.45204C75.3283 9.80285 75.514 10.3328 75.514 11.0411V11.6564C75.514 12.3722 75.2421 12.9162 74.691 13.2886C75.2778 13.6319 75.5778 14.1835 75.5778 14.9423V15.6871C75.5778 16.0304 75.5421 16.3381 75.4634 16.6109C75.3847 16.883 75.2629 17.1193 75.0847 17.3126C74.9057 17.5058 74.6769 17.6559 74.3836 17.7563C74.0902 17.8566 73.733 17.9138 73.3037 17.9138H65.6778C65.42 17.9138 65.2916 17.7853 65.2916 17.5274V9.30939C65.2916 9.05147 65.42 8.92292 65.6778 8.92292H73.0742L73.075 8.92209ZM72.5247 12.6591C72.954 12.6591 73.2399 12.5944 73.3974 12.4659C73.5548 12.3373 73.6261 12.1507 73.6261 11.9003V11.4632C73.6261 11.1986 73.5548 11.0054 73.404 10.876C73.254 10.7541 73.0104 10.6903 72.6814 10.6903H67.4305C67.3162 10.6903 67.2656 10.7475 67.2656 10.8553V12.6591H67.2581H72.5247ZM67.2598 14.0624V15.974C67.2598 16.0885 67.317 16.139 67.4247 16.139H72.6897C73.0328 16.139 73.2764 16.0744 73.4189 15.9533C73.5623 15.8314 73.641 15.6315 73.641 15.3595V14.8726C73.641 14.6081 73.5623 14.4074 73.4048 14.2714C73.2474 14.1353 72.954 14.064 72.5247 14.064H67.2598V14.0624Z" fill="white"/>
<path d="M80.3645 8.92209C80.5502 8.92209 80.6438 9.01497 80.6438 9.20158V17.6277C80.6438 17.8135 80.551 17.9072 80.3645 17.9072H78.9764C78.7759 17.9072 78.683 17.8143 78.683 17.6277V9.20904C78.683 9.02327 78.7833 8.92955 78.9764 8.92955L80.3645 8.92209Z" fill="white"/>
<path d="M93.8132 8.92209C94.0137 8.92209 94.1066 9.01497 94.1066 9.20158V10.4614C94.1066 10.6621 94.0063 10.7549 93.8132 10.7549H89.7855V17.6277C89.7855 17.8135 89.6927 17.9072 89.5063 17.9072H88.1041C87.9184 17.9072 87.8248 17.8143 87.8248 17.6277V10.7549H83.7971C83.5966 10.7549 83.5038 10.6546 83.5038 10.4614V9.20158C83.5038 9.0158 83.604 8.92209 83.7971 8.92209H93.8132Z" fill="white"/>
<path d="M103.963 8.92209C104.95 8.92209 105.652 9.14435 106.081 9.58805C106.51 10.0318 106.725 10.6903 106.725 11.5635V12.2934C106.725 13.0307 106.575 13.6104 106.274 14.04C105.973 14.4696 105.487 14.7416 104.807 14.8635L107.003 17.5838C107.046 17.6269 107.06 17.6907 107.039 17.777C107.025 17.8633 106.953 17.9055 106.832 17.9055H105.179C105.065 17.9055 104.994 17.8914 104.95 17.8699C104.907 17.8409 104.864 17.7986 104.822 17.7413L102.791 15.0708H98.6422V17.6269C98.6422 17.8127 98.5494 17.9064 98.3629 17.9064H96.9748C96.7742 17.9064 96.6814 17.8135 96.6814 17.6269V9.30856C96.6814 9.05064 96.8099 8.92209 97.0676 8.92209H103.963ZM98.6563 13.5109H103.571C104.007 13.5109 104.315 13.418 104.494 13.2314C104.673 13.0456 104.766 12.7586 104.766 12.3722V11.8356C104.766 11.4491 104.673 11.163 104.494 10.9764C104.315 10.7906 104.007 10.6969 103.571 10.6969H98.8204C98.706 10.6969 98.6554 10.7466 98.6554 10.8545V13.51L98.6563 13.5109Z" fill="white"/>
<path d="M111.182 8.92209C111.367 8.92209 111.461 9.01497 111.461 9.20158V14.3269C111.461 14.6703 111.49 14.9572 111.547 15.1787C111.604 15.4076 111.697 15.5867 111.826 15.7152C111.955 15.8513 112.127 15.9441 112.349 15.9947C112.571 16.052 112.842 16.081 113.178 16.081H116.733C117.07 16.081 117.342 16.052 117.563 15.9947C117.785 15.9375 117.957 15.8446 118.085 15.7152C118.213 15.5792 118.307 15.4001 118.357 15.1787C118.407 14.9498 118.436 14.6703 118.436 14.3269V9.20158C118.436 9.0158 118.528 8.92209 118.715 8.92209H120.117C120.303 8.92209 120.396 9.01497 120.396 9.20158V14.5202C120.396 15.1355 120.332 15.658 120.203 16.0951C120.075 16.5247 119.867 16.8755 119.581 17.1475C119.295 17.4196 118.923 17.6128 118.465 17.7347C118.007 17.8566 117.456 17.9138 116.805 17.9138H113.106C112.455 17.9138 111.904 17.8566 111.454 17.7347C111.003 17.6128 110.631 17.4196 110.345 17.1475C110.059 16.8755 109.851 16.5247 109.715 16.0951C109.579 15.6655 109.514 15.1355 109.514 14.5202V9.20158C109.514 9.0158 109.615 8.92209 109.808 8.92209H111.182Z" fill="white"/>
<path d="M125.911 8.92209C126.096 8.92209 126.261 8.93619 126.397 8.95775C126.533 8.98678 126.655 9.02907 126.755 9.10786C126.856 9.17919 126.948 9.27954 127.035 9.40145C127.113 9.52336 127.199 9.68757 127.285 9.89574L129.953 16.0594C129.989 16.1382 130.046 16.1739 130.132 16.1739H130.29C130.376 16.1739 130.433 16.1382 130.469 16.0594L133.137 9.89574C133.223 9.6884 133.309 9.52336 133.388 9.40145C133.466 9.27954 133.559 9.17919 133.667 9.10786C133.767 9.03654 133.889 8.98595 134.017 8.95775C134.153 8.92872 134.311 8.92209 134.496 8.92209H135.87C136.313 8.92209 136.614 9.02244 136.771 9.22314C136.929 9.42384 137 9.76719 137 10.254V17.6277C137 17.8135 136.9 17.9072 136.707 17.9072H135.397C135.212 17.9072 135.118 17.8143 135.118 17.6277V10.92C135.118 10.8337 135.082 10.7914 135.018 10.7914H134.903C134.817 10.7914 134.76 10.8271 134.738 10.8918L132.149 16.6474C132.048 16.8763 131.941 17.077 131.834 17.2346C131.727 17.3922 131.612 17.5207 131.491 17.6285C131.369 17.7289 131.226 17.8077 131.069 17.8508C130.911 17.8939 130.726 17.9155 130.511 17.9155H129.896C129.681 17.9155 129.496 17.8939 129.338 17.8508C129.181 17.8077 129.038 17.7364 128.917 17.6285C128.795 17.5282 128.674 17.3922 128.573 17.2346C128.467 17.077 128.359 16.8838 128.259 16.6474L125.669 10.8918C125.64 10.8205 125.59 10.7914 125.504 10.7914H125.389C125.318 10.7914 125.289 10.8346 125.289 10.92V17.6277C125.289 17.8135 125.196 17.9072 125.01 17.9072H123.701C123.5 17.9072 123.407 17.8143 123.407 17.6277V10.254C123.407 9.76719 123.486 9.42384 123.636 9.22314C123.793 9.02244 124.093 8.92209 124.544 8.92209H125.911Z" fill="white"/>
<path d="M18.092 20.1589L16.3964 24.8049C16.3467 24.9334 16.3467 25.0769 16.3964 25.2054L19.3078 33.202L22.6774 31.2547L18.6357 20.1589C18.5429 19.901 18.1848 19.901 18.092 20.1589Z" fill="white"/>
<path d="M21.4824 12.3415C21.3895 12.0836 21.0315 12.0836 20.9387 12.3415L19.2431 16.9875C19.1934 17.116 19.1934 17.2595 19.2431 17.388L24.0141 30.4817L27.3838 28.5344L21.4824 12.3415Z" fill="white"/>
<path d="M15.4948 2.16874C15.581 2.16874 15.6597 2.1903 15.7376 2.23342L28.5854 9.65689C28.7354 9.74314 28.8282 9.89989 28.8282 10.0724V24.9193C28.8282 25.091 28.7354 25.2486 28.5854 25.3348L15.7376 32.7657C15.6663 32.8089 15.5801 32.8304 15.4948 32.8304C15.4094 32.8304 15.3299 32.8089 15.252 32.7657L2.41161 25.3423C2.26161 25.256 2.16879 25.0993 2.16879 24.9268V10.0724C2.16879 9.90071 2.26161 9.74314 2.41161 9.65689L15.2594 2.23342C15.3307 2.1903 15.4161 2.16874 15.4948 2.16874ZM15.4948 0C15.0373 0 14.579 0.121914 14.1713 0.358277L1.32348 7.78174C0.508012 8.25447 0 9.12777 0 10.0724V24.9193C0 25.8639 0.508012 26.7447 1.32348 27.2174L14.1713 34.6409C14.579 34.8773 15.0365 34.9992 15.4948 34.9992C15.9531 34.9992 16.4105 34.8773 16.8183 34.6409L29.6661 27.2174C30.489 26.7447 30.9896 25.8714 30.9896 24.9193V10.0724C30.9896 9.12777 30.4816 8.247 29.6661 7.77428L16.8257 0.357447C16.4105 0.121084 15.9531 0 15.4948 0Z" fill="white"/>
<path d="M7.00361 30.4958L8.18455 27.2597L10.5589 29.2361L8.34118 31.2688L7.00361 30.4958Z" fill="white"/>
<path d="M14.4149 9.01249H11.1605C10.9177 9.01249 10.6956 9.1626 10.6169 9.3915L3.63481 28.5485L7.00361 30.4958L14.6942 9.39896C14.7589 9.21319 14.623 9.01249 14.4149 9.01249Z" fill="white"/>
<path d="M16.8614 9.01249C16.6185 9.01249 16.3964 9.1626 16.3177 9.3915L8.34118 31.2688L11.7116 33.2161L20.3884 9.40643C20.4597 9.21319 20.3172 9.01249 20.1166 9.01249H16.8614Z" fill="white"/>
</svg>
